<?xml version="1.0" standalone="no"?>
<!DOCTYPE svg PUBLIC "-//W3C//DTD SVG 20010904//EN"
 "http://www.w3.org/TR/2001/REC-SVG-20010904/DTD/svg10.dtd">
<svg version="1.0" xmlns="http://www.w3.org/2000/svg"
 viewBox="0 0 192.000000 192.000000"
 preserveAspectRatio="xMidYMid meet" id="BenM (client)I">
  <g transform="translate(0.000000,192.000000) scale(0.100000,-0.100000)"
  fill="#4287f5" stroke="none">
    <path d="M755 1896 c-163 -46 -318 -145 -406 -260 -22 -28 -44 -57 -51 -65
    -25 -30 -91 -178 -109 -245 -27 -103 -26 -304 2 -411 60 -232 220 -422 439
    -523 90 -42 206 -72 278 -72 l52 0 0 -160 c0 -104 4 -160 10 -160 18 0 119 71
    171 120 9 8 64 58 122 110 58 52 106 100 106 107 1 6 14 22 29 35 15 13 31 31
    35 41 3 9 10 17 15 17 4 0 30 30 57 68 27 37 52 69 55 72 21 19 144 220 135
    220 -4 0 -1 10 8 23 8 12 24 59 36 104 40 155 24 380 -35 513 -24 54 -66 132
    -80 149 -7 9 -33 41 -58 73 -87 107 -252 209 -405 248 -113 29 -296 27 -406
    -4z m467 -383 c90 -41 123 -91 123 -188 0 -85 -27 -132 -93 -166 l-44 -21 51
    -18 c28 -9 59 -24 69 -33 10 -10 22 -14 27 -10 4 5 5 3 1 -4 -3 -6 -1 -15 5
    -19 21 -12 49 -89 49 -133 0 -57 -42 -142 -91 -180 -20 -17 -64 -39 -97 -50
    -56 -19 -85 -21 -337 -21 l-275 0 0 428 c0 236 3 432 8 436 4 4 131 6 282 4
    255 -3 278 -5 322 -25z"/>
    <path d="M850 1281 l0 -81 88 0 c98 0 148 11 168 37 19 26 17 67 -5 94 -18 22
    -27 24 -135 27 l-116 4 0 -81z"/>
    <path d="M850 941 l0 -101 103 0 c160 0 207 22 207 98 0 80 -36 99 -192 101
    l-118 2 0 -100z"/>
  </g>
</svg>
