<?xml version="1.0" standalone="no"?>
<!DOCTYPE svg PUBLIC "-//W3C//DTD SVG 20010904//EN"
 "http://www.w3.org/TR/2001/REC-SVG-20010904/DTD/svg10.dtd">
<svg version="1.0" xmlns="http://www.w3.org/2000/svg"
 width="260.000000pt" height="260.000000pt" viewBox="0 0 260.000000 260.000000"
 preserveAspectRatio="xMidYMid meet">
<metadata>
Created by potrace 1.11, written by Peter Selinger 2001-2013
</metadata>
<g transform="translate(0.000000,260.000000) scale(0.100000,-0.100000)"
fill="#000000" stroke="none">
<path d="M750 2567 c0 -9 -30 -12 -115 -12 -63 0 -115 -3 -115 -7 0 -4 -7 -4
-17 -1 -11 4 -14 3 -9 -5 5 -8 2 -10 -8 -6 -9 3 -16 1 -16 -4 0 -7 -11 -8 -31
-2 -18 5 -29 7 -26 4 3 -4 -1 -14 -10 -22 -12 -12 -12 -17 -3 -20 9 -3 9 -6
-1 -13 -10 -6 -11 -11 -3 -16 7 -6 10 -364 9 -1178 0 -643 1 -1178 3 -1187 3
-10 10 -14 20 -11 11 5 13 3 7 -8 -7 -11 -5 -11 10 1 11 9 16 10 11 3 -8 -15
-12 -14 159 -17 74 -1 129 -7 143 -14 20 -12 26 -9 23 11 -1 5 3 6 9 2 6 -3 8
-10 5 -14 -2 -5 6 -9 20 -8 16 0 22 4 18 11 -5 8 -3 8 8 0 16 -13 382 -16 374
-4 -3 4 2 11 11 14 24 9 31 7 14 -4 -9 -6 -10 -10 -3 -10 6 0 14 3 17 8 2 4
45 7 95 7 54 0 91 4 91 10 0 6 5 3 10 -5 8 -13 10 -13 10 2 0 11 5 15 15 12 8
-4 15 -2 15 3 0 5 18 7 40 5 24 -3 47 1 57 9 14 12 16 12 9 -1 -4 -8 -1 -7 8
4 8 10 19 15 25 11 6 -3 11 0 11 7 0 10 2 10 9 0 11 -19 19 -17 41 8 13 15 19
17 23 8 4 -9 6 -10 6 -1 1 7 8 10 16 6 9 -3 22 2 29 12 7 10 18 15 24 11 7 -4
12 -3 12 3 0 6 7 8 15 5 8 -4 17 1 21 10 3 9 11 13 16 10 6 -4 14 0 19 7 4 8
13 15 19 15 5 1 15 2 21 3 5 0 7 5 4 11 -3 5 6 12 20 16 23 6 143 116 185 169
13 17 13 18 0 10 -8 -4 -6 2 5 13 35 37 42 47 49 75 3 15 11 25 15 22 5 -3 8
9 7 25 -1 17 2 30 7 30 4 0 6 4 3 9 -3 5 0 11 7 14 9 3 13 20 12 48 -1 24 4
49 11 56 16 16 17 173 1 170 -7 -1 -11 21 -11 59 -1 49 -4 60 -15 56 -9 -3
-12 -1 -7 6 4 7 3 12 -3 12 -5 0 -8 9 -6 20 2 13 -2 23 -11 27 -9 3 -14 13
-11 24 3 12 0 19 -10 19 -8 0 -11 5 -8 10 3 6 1 10 -5 10 -6 0 -8 5 -5 10 3 6
1 10 -4 10 -6 0 -11 6 -11 13 0 7 -13 24 -30 37 -16 14 -29 31 -30 38 0 6 -6
12 -14 12 -8 0 -18 10 -21 21 -6 17 -9 19 -16 8 -7 -11 -9 -10 -9 4 0 15 -4
18 -25 17 -3 0 -17 11 -31 25 -14 14 -32 25 -40 25 -9 0 -22 7 -30 15 -8 8
-22 11 -31 8 -11 -4 -14 -3 -9 5 4 7 1 13 -8 13 -9 1 -20 3 -26 4 -5 1 -18 3
-28 4 -10 0 -19 7 -19 15 0 8 6 12 14 9 7 -3 13 0 13 6 0 6 7 11 16 11 9 0 12
5 8 13 -5 8 -2 8 9 -2 13 -11 17 -11 17 -1 0 8 3 10 6 7 4 -4 16 4 28 17 12
13 33 26 48 30 15 3 30 15 33 26 3 11 10 20 15 20 13 0 90 77 90 90 0 5 4 10
10 10 5 0 7 7 4 15 -4 10 0 15 11 15 9 0 13 5 10 10 -3 6 2 22 12 38 11 15 19
34 18 42 0 8 4 18 10 22 5 4 10 18 10 30 1 13 4 29 8 36 5 6 5 12 0 12 -4 0
-7 49 -7 110 1 65 -2 110 -8 110 -5 0 -6 5 -3 10 3 6 2 10 -3 10 -5 0 -9 10
-8 23 1 12 -6 28 -16 35 -9 7 -15 19 -12 27 4 8 -1 18 -10 21 -9 3 -16 14 -16
24 0 20 -127 153 -151 158 -8 2 -20 10 -26 19 -7 9 -13 13 -13 8 0 -4 -9 0
-20 10 -10 9 -26 15 -34 12 -10 -4 -13 -1 -9 9 5 12 -13 19 -39 15 -5 0 -8 4
-8 10 0 5 -4 8 -9 5 -5 -3 -11 1 -15 9 -3 8 -12 12 -21 9 -8 -4 -27 1 -41 11
-14 9 -32 14 -40 11 -8 -3 -14 0 -14 7 0 9 -3 8 -9 -1 -6 -11 -11 -10 -24 3
-11 11 -39 17 -86 19 -39 2 -77 8 -84 14 -14 12 -641 16 -633 4 2 -4 -4 -8
-14 -8 -10 0 -16 4 -14 8 3 4 0 8 -5 8 -6 0 -11 -6 -11 -13z m430 -405 c1 9 3
8 9 -2 7 -12 30 -15 98 -15 69 0 91 -3 100 -16 7 -10 23 -15 38 -13 16 1 28
-3 32 -12 3 -8 11 -14 19 -14 8 0 14 -7 14 -16 0 -10 6 -14 15 -10 10 3 17 -3
21 -19 3 -14 10 -22 15 -19 8 4 11 -8 8 -32 0 -3 8 -13 18 -22 14 -14 18 -33
19 -94 0 -49 -3 -75 -9 -71 -6 4 -8 -1 -4 -11 4 -10 3 -15 -3 -11 -9 6 -14 -8
-11 -28 1 -5 -21 -31 -49 -60 -27 -28 -50 -47 -50 -43 0 4 -7 0 -16 -8 -8 -9
-27 -16 -40 -16 -14 0 -22 -4 -19 -10 6 -10 -3 -13 -40 -12 -11 0 -23 -5 -27
-12 -6 -8 -8 -7 -8 2 0 8 -8 5 -22 -8 -15 -13 -24 -16 -29 -9 -4 7 -9 7 -12 2
-4 -6 -26 -7 -51 -3 -25 4 -51 3 -58 -1 -7 -4 -18 -3 -25 3 -9 7 -13 7 -13 0
0 -11 -18 -11 -36 1 -6 3 -14 4 -18 0 -10 -10 -63 -9 -72 2 -12 14 -14 45 -2
45 5 0 6 5 3 11 -5 8 -10 399 -6 489 1 12 12 15 46 14 28 -1 45 2 45 10 0 7 3
7 8 1 4 -5 26 -10 49 -10 35 -1 40 2 30 14 -10 12 -9 13 11 2 17 -9 22 -9 22
1z m21 -996 c27 0 49 2 49 7 0 4 12 0 26 -9 14 -10 48 -18 76 -20 28 -1 54 -8
59 -15 4 -7 18 -13 30 -14 13 -1 25 -7 27 -13 2 -7 11 -12 19 -12 9 0 29 -13
44 -30 16 -16 29 -27 29 -23 0 4 12 -10 27 -32 15 -22 26 -44 25 -49 -2 -5 3
-13 10 -17 19 -12 20 -239 1 -232 -8 3 -13 -2 -13 -17 0 -12 -7 -28 -15 -37
-8 -8 -13 -19 -10 -24 4 -5 1 -9 -5 -9 -6 0 -9 -3 -7 -7 2 -5 -9 -19 -26 -33
-17 -14 -27 -19 -23 -11 5 7 -5 3 -23 -10 -17 -12 -31 -27 -31 -31 0 -5 -4 -7
-9 -3 -12 7 -62 -16 -56 -26 6 -9 -15 -6 -32 4 -14 9 -43 -1 -43 -15 0 -5 -4
-6 -10 -3 -5 3 -10 3 -10 -2 0 -7 -155 -9 -170 -3 -3 1 -9 1 -15 0 -27 -7 -96
-6 -101 2 -3 4 -14 4 -24 -2 -13 -7 -21 -7 -26 1 -10 16 -11 189 -1 189 5 0 5
5 2 11 -4 5 -7 117 -7 247 l-1 237 82 0 c44 0 81 4 81 8 0 5 5 5 11 1 6 -3 33
-7 60 -8z"/>
</g>
</svg>
