<?xml version="1.0" standalone="no"?>
<!DOCTYPE svg PUBLIC "-//W3C//DTD SVG 20010904//EN"
 "http://www.w3.org/TR/2001/REC-SVG-20010904/DTD/svg10.dtd">
<svg version="1.0" xmlns="http://www.w3.org/2000/svg"
 width="192.000000pt" height="192.000000pt" viewBox="0 0 192.000000 192.000000"
 preserveAspectRatio="xMidYMid meet">
<metadata>
Created by potrace 1.11, written by Peter Selinger 2001-2013
</metadata>
<g transform="translate(0.000000,192.000000) scale(0.100000,-0.100000)"
fill="#000000" stroke="none">
<path d="M795 1905 c-286 -72 -500 -267 -593 -540 -25 -74 -27 -93 -27 -240 0
-169 11 -227 67 -345 79 -167 230 -316 393 -390 70 -31 173 -60 215 -60 19 0
52 -3 73 -6 l37 -7 0 -158 c0 -106 4 -159 11 -159 34 0 277 206 383 325 144
161 179 205 263 330 47 70 99 187 123 275 19 74 22 102 17 220 -4 117 -8 146
-35 224 -63 183 -188 338 -351 436 -83 49 -128 67 -241 95 -68 18 -267 17
-335 0z m408 -397 c59 -21 123 -90 131 -140 12 -74 -2 -124 -46 -168 -22 -22
-49 -40 -59 -40 -11 0 -19 -2 -19 -4 0 -2 -3 -11 -6 -20 -4 -12 0 -16 15 -16
27 0 111 -42 133 -66 25 -29 48 -93 48 -136 0 -47 -37 -123 -78 -159 -16 -15
-51 -37 -78 -50 -47 -22 -62 -23 -336 -27 l-288 -4 0 427 0 428 273 -6 c197
-3 282 -9 310 -19z"/>
<path d="M840 1286 l0 -84 93 -4 c150 -7 197 13 197 84 0 28 -7 46 -25 63 -23
24 -30 25 -145 25 l-120 0 0 -84z"/>
<path d="M842 943 l3 -108 105 -3 c130 -4 163 2 195 34 19 19 25 35 25 70 0
95 -35 114 -210 114 l-121 0 3 -107z"/>
</g>
</svg>
