<?xml version="1.0" standalone="no"?>
<!DOCTYPE svg PUBLIC "-//W3C//DTD SVG 20010904//EN"
 "http://www.w3.org/TR/2001/REC-SVG-20010904/DTD/svg10.dtd">
<svg version="1.0" xmlns="http://www.w3.org/2000/svg"
 width="256.000000pt" height="256.000000pt" viewBox="0 0 256.000000 256.000000"
 preserveAspectRatio="xMidYMid meet" id="ScreepsI">
<g transform="translate(0.000000,256.000000) scale(0.100000,-0.100000)"
fill="#cc7e6b" stroke="none">
<path d="M150 2539 c-54 -33 -100 -80 -126 -131 l-24 -47 0 -1081 c0 -1068 0
-1081 20 -1121 27 -51 88 -112 139 -139 40 -20 53 -20 1121 -20 1068 0 1081 0
1121 20 51 27 112 88 139 139 20 40 20 53 20 1121 l0 1081 -24 47 c-14 27 -43
65 -65 85 -81 73 19 67 -1193 67 -1092 0 -1093 0 -1128 -21z m429 -790 l138 2
27 -36 c16 -20 31 -34 34 -31 7 8 63 -45 57 -54 -3 -4 19 -32 48 -62 28 -30
41 -41 27 -24 l-25 31 32 -29 c18 -16 30 -32 28 -36 -2 -3 22 -34 53 -66 31
-33 46 -47 32 -30 l-25 31 32 -29 c18 -16 31 -32 30 -35 -3 -11 55 -81 63 -76
4 3 13 -2 20 -10 10 -12 10 -18 0 -30 -7 -8 -16 -13 -20 -10 -9 6 -72 -69 -65
-77 3 -2 -12 -20 -33 -39 l-37 -34 30 36 c17 19 2 6 -32 -30 -35 -35 -60 -67
-58 -70 8 -7 -47 -61 -56 -56 -4 3 -22 -13 -39 -35 -17 -22 -28 -40 -24 -40 4
0 -5 -13 -21 -30 -15 -16 -32 -27 -36 -25 -4 3 -16 -6 -27 -20 -19 -24 -23
-25 -155 -25 -75 0 -138 4 -141 9 -3 4 4 17 17 27 22 19 22 19 7 -2 -8 -11 2
-3 22 19 21 22 36 43 33 47 -2 4 5 16 18 26 22 19 22 19 7 -2 -8 -11 2 -3 22
19 21 22 36 43 33 47 -2 4 5 16 18 26 22 19 22 19 7 -2 -8 -11 2 -3 22 19 21
22 36 43 33 47 -2 4 5 16 18 26 22 19 22 19 7 -2 -8 -11 2 -2 22 20 20 22 35
43 33 47 -3 3 5 15 18 25 22 19 22 19 7 -2 -8 -11 3 -1 25 24 23 24 41 52 41
63 0 11 -23 44 -51 73 -27 29 -39 39 -25 22 l25 -31 -32 29 c-18 16 -30 32
-28 36 3 4 -19 32 -48 62 -28 30 -41 41 -27 24 l25 -31 -32 29 c-18 16 -30 32
-28 36 3 4 -19 32 -48 62 -28 30 -41 41 -27 24 l25 -31 -32 29 c-18 16 -31 32
-28 34 7 7 -46 72 -55 67 -4 -2 -16 5 -26 17 -11 12 -13 18 -6 14 7 -5 75 -7
151 -7z m1580 -673 c17 -16 33 -38 37 -48 3 -10 9 -16 12 -14 4 2 7 -22 7 -54
0 -32 -3 -56 -7 -54 -3 2 -9 -4 -12 -14 -4 -10 -20 -32 -37 -48 l-30 -29 -330
-3 c-366 -3 -380 -1 -418 62 -22 36 -43 106 -31 106 8 0 24 55 23 78 -1 7 2
11 5 8 8 -8 43 25 36 35 -2 5 157 7 355 6 l360 -2 30 -29z"/>
</g>
</svg>
